<svg width="130" height="50" viewBox="0 0 130 50" fill="none" xmlns="http://www.w3.org/2000/svg">
<path d="M0.151 28.728H5.479V17.928H14.947V13.464H5.479V6.516H16.567V2.052H0.151V28.728Z" fill="white"/>
<path d="M28.5336 29.232C33.5736 29.232 38.2176 25.344 38.2176 18.648C38.2176 11.952 33.5736 8.064 28.5336 8.064C23.4936 8.064 18.8496 11.952 18.8496 18.648C18.8496 25.344 23.4936 29.232 28.5336 29.232ZM28.5336 24.912C25.7976 24.912 24.2496 22.464 24.2496 18.648C24.2496 14.868 25.7976 12.384 28.5336 12.384C31.2696 12.384 32.8176 14.868 32.8176 18.648C32.8176 22.464 31.2696 24.912 28.5336 24.912Z" fill="white"/>
<path d="M51.0688 29.232C56.1088 29.232 60.7528 25.344 60.7528 18.648C60.7528 11.952 56.1088 8.064 51.0688 8.064C46.0288 8.064 41.3848 11.952 41.3848 18.648C41.3848 25.344 46.0288 29.232 51.0688 29.232ZM51.0688 24.912C48.3328 24.912 46.7848 22.464 46.7848 18.648C46.7848 14.868 48.3328 12.384 51.0688 12.384C53.8048 12.384 55.3528 14.868 55.3528 18.648C55.3528 22.464 53.8048 24.912 51.0688 24.912Z" fill="white"/>
<path d="M72.2719 29.232C74.3599 29.232 76.3759 28.08 77.8519 26.64H77.9959L78.3919 28.728H82.6759V0H77.4199V7.092L77.5999 10.26C76.1599 8.928 74.7559 8.064 72.4879 8.064C68.1319 8.064 64.0279 12.096 64.0279 18.648C64.0279 25.272 67.2679 29.232 72.2719 29.232ZM73.6399 24.876C70.9759 24.876 69.4639 22.788 69.4639 18.612C69.4639 14.58 71.3719 12.42 73.6399 12.42C74.8999 12.42 76.1959 12.816 77.4199 13.932V22.788C76.2319 24.3 75.0439 24.876 73.6399 24.876Z" fill="white"/>
<path d="M94.1079 29.232C99.3639 29.232 102.136 26.388 102.136 22.86C102.136 19.116 99.1839 17.784 96.5199 16.776C94.3959 15.984 92.5239 15.444 92.5239 13.968C92.5239 12.816 93.3879 12.024 95.2239 12.024C96.6999 12.024 98.1039 12.708 99.5439 13.752L101.92 10.548C100.264 9.288 97.9959 8.064 95.0799 8.064C90.4719 8.064 87.5559 10.62 87.5559 14.22C87.5559 17.604 90.3999 19.152 92.9559 20.124C95.0799 20.952 97.1679 21.636 97.1679 23.148C97.1679 24.408 96.2679 25.272 94.2519 25.272C92.3799 25.272 90.6519 24.48 88.8519 23.076L86.4399 26.388C88.4559 28.044 91.4079 29.232 94.1079 29.232Z" fill="white"/>
<path d="M107.936 36.828C112.436 36.828 114.596 34.092 116.36 29.34L123.524 8.568H118.448L115.676 17.928C115.208 19.8 114.704 21.744 114.236 23.616H114.056C113.48 21.672 112.976 19.728 112.364 17.928L109.16 8.568H103.832L111.68 28.368L111.32 29.556C110.744 31.32 109.592 32.616 107.54 32.616C107.072 32.616 106.496 32.472 106.136 32.364L105.164 36.432C105.956 36.684 106.748 36.828 107.936 36.828Z" fill="white"/>
<path d="M9 40.228L0 28.728L1.5 28.228H2L5.5 28.728L11 35.728L127.5 45.228L123.5 49.228L118 48.728L78 45.228L9 40.228Z" fill="white"/>
<path d="M11.5 35.5L5 27L8 36.5L124 49L129.5 44L11.5 35.5Z" fill="white"/>
</svg>
